# xmcd
#
# Track frame offsets:
#	150
#	16681
#	34426
#	49547
#	69104
#	86453
#	106439
#	121464
#	141711
#	160584
#	179899
#
# Disc length: 2623 seconds
#
# Revision: 1
# Processed by: cddbd v1.5.2PL0 Copyright (c) Steve Scherf et al.
# Submitted via: audiograbber 1.83.01
#
DISCID=930a3d0b
DTITLE=Kenny Chesney - Songs For The Saints
DYEAR=2018
DGENRE=Country
TTITLE0=Song For The Saints
TTITLE1=Every Heart
TTITLE2=Get Along
TTITLE3=Pirate Song
TTITLE4=Love For Love City (w. Ziggy Marley)
TTITLE5=Ends Of The Earth
TTITLE6=Gulf Moon
TTITLE7=Island Rain
TTITLE8=Trying To Reason With Hurricane Season (w. Jimmy Buffett)
TTITLE9=We're All Here
TTITLE10=Better Boat (ft Mindy Smith)
EXTD=
EXTT0=
EXTT1=
EXTT2=
EXTT3=
EXTT4=
EXTT5=
EXTT6=
EXTT7=
EXTT8=
EXTT9=
EXTT10=
PLAYORDER=
